PathFileType	4	(X/Y/Z)	Kaydara																																																																																																																									
DataRate	CameraRate	NumFrames	NumMarkers	Units	OrigDataRate	OrigDataStartFrame	OrigNumFrames																																																																																																																					
30	30	8	41	mm	30	1	195																																																																																																																					
Frame#	Time	NABA_LFHD			NABA_RFHD			NABA_LBHD			NABA_RBHD			NABA_LFTShould			NABA_RFTShould			NABA_LRRShould			NABA_RRRShould			NABA_T10			NABA_STRN			NABA_TRUN			NABA_LSHO			NABA_LUPA			NABA_LELB			NABA_LFRM			NABA_LWRA			NABA_LWRB			NABA_LFIN			NABA_RSHO			NABA_RUPA			NABA_RELB			NABA_RFRM			NABA_RWRA			NABA_RWRB			NABA_RFIN			NABA_LFWT			NABA_RFWT			NABA_LBWT			NABA_RBWT			NABA_LTHI			NABA_LKNE			NABA_LSHN			NABA_LANK			NABA_LHEE			NABA_LTOE			NABA_RTHI			NABA_RKNE			NABA_RSHN			NABA_RANK			NABA_RHEE			NABA_RTOE		
		X1	Y1	Z1	X2	Y2	Z2	X3	Y3	Z3	X4	Y4	Z4	X5	Y5	Z5	X6	Y6	Z6	X7	Y7	Z7	X8	Y8	Z8	X9	Y9	Z9	X10	Y10	Z10	X11	Y11	Z11	X12	Y12	Z12	X13	Y13	Z13	X14	Y14	Z14	X15	Y15	Z15	X16	Y16	Z16	X17	Y17	Z17	X18	Y18	Z18	X19	Y19	Z19	X20	Y20	Z20	X21	Y21	Z21	X22	Y22	Z22	X23	Y23	Z23	X24	Y24	Z24	X25	Y25	Z25	X26	Y26	Z26	X27	Y27	Z27	X28	Y28	Z28	X29	Y29	Z29	X30	Y30	Z30	X31	Y31	Z31	X32	Y32	Z32	X33	Y33	Z33	X34	Y34	Z34	X35	Y35	Z35	X36	Y36	Z36	X37	Y37	Z37	X38	Y38	Z38	X39	Y39	Z39	X40	Y40	Z40	X41	Y41	Z41
																																																																																																																												
1	0.01	237.52422	1598.34564	-1929.96429	66.65824	1569.60876	-1905.49164	245.88732	1600.71945	-2055.6604	30.63945	1577.81036	-2000.69336	225.04114	1349.87091	-1990.34775	89.5794	1346.62933	-1987.42615	222.72978	1376.41815	-2117.19971	74.49142	1375.99213	-2107.35565	158.4081	1201.07056	-2149.82086	158.16248	1306.35071	-1930.06012	159.2238	1219.18991	-1864.02084	322.94147	1357.28088	-2049.06097	374.55147	1118.41721	-2062.04514	388.60203	1038.89877	-2027.23831	379.54224	965.04501	-2038.99017	335.94807	830.28023	-1938.02048	407.39952	829.2556	-1948.82172	391.39198	774.28535	-1898.24738	-5.84062	1357.56927	-2038.48953	-53.40096	1151.98219	-2082.94647	-80.34639	1032.42508	-2026.82846	-82.94817	938.78296	-2007.15637	-17.43217	827.97768	-1912.70126	-90.81282	815.06134	-1913.19794	-75.87591	782.6609	-1876.77948	286.59216	956.34354	-1931.75613	19.68593	954.90112	-1933.21442	228.13736	1021.54678	-2101.5152	69.65164	1030.82153	-2105.98343	289.13418	659.51935	-2079.50775	288.41278	508.27888	-2030.76965	239.75264	309.93725	-2014.96857	268.97608	160.40474	-2087.78473	211.02972	112.21389	-2140.2063	240.9709	78.54429	-1956.28876	24.64165	671.42792	-2083.19412	42.80925	507.416	-1979.01276	56.55204	334.1777	-2005.78979	54.07779	143.0867	-2076.07132	111.92945	98.98321	-2142.49512	62.33715	77.11184	-1954.83658
2	0.043	238.16603	1599.37653	-1930.54276	67.02205	1571.46332	-1906.30554	246.89127	1600.62134	-2056.26328	31.38593	1578.83011	-2001.59546	225.53501	1349.94156	-1989.32816	89.93259	1346.80771	-1986.48788	223.08409	1376.38138	-2115.72403	74.59432	1376.6156	-2106.14563	158.21109	1201.61911	-2149.36142	158.6693	1306.01974	-1929.17679	159.5898	1218.8089	-1863.31772	323.18966	1357.34756	-2048.07587	375.26829	1118.63571	-2061.66946	389.27174	1038.93318	-2026.8985	380.317	964.88533	-2038.38074	335.37663	830.87509	-1936.99158	406.87195	829.47578	-1947.14767	390.35381	775.23064	-1896.04599	-5.52185	1358.2428	-2036.88141	-54.62869	1153.03268	-2081.51489	-80.82548	1033.18466	-2025.19226	-83.06776	939.38904	-2005.25482	-15.93465	828.87589	-1911.55807	-89.32484	815.93063	-1910.80353	-73.72894	783.87695	-1874.37653	286.60395	956.2429	-1932.48062	19.80806	954.81552	-1933.73352	228.10957	1021.79337	-2101.98608	69.58323	1031.11	-2106.38275	289.08033	659.56459	-2080.26611	288.38541	508.3313	-2031.34415	239.78075	309.98646	-2015.30396	268.97127	160.33119	-2087.94739	211.00893	112.1467	-2140.28442	240.98896	78.54766	-1956.30142	24.56526	671.4994	-2083.69339	42.85806	507.40185	-1979.50821	56.3695	334.20834	-2005.89645	54.03514	143.15125	-2076.18652	111.90358	98.94511	-2142.56989	62.31712	77.11897	-1954.85474
3	0.077	238.59402	1600.79178	-1931.52878	67.49996	1573.25165	-1907.258	247.60599	1600.65079	-2057.20474	31.97454	1579.77478	-2002.72079	224.68889	1349.48318	-1985.67139	90.45874	1346.91727	-1985.34714	223.27147	1376.89667	-2115.22598	74.83525	1377.18414	-2105.04028	158.09373	1202.18658	-2148.92578	158.96493	1305.80276	-1927.84042	159.87421	1218.54683	-1862.7301	323.36269	1357.05841	-2046.98837	375.7634	1118.47733	-2060.57892	389.67831	1038.83919	-2026.00708	380.84419	964.77394	-2037.52945	334.66999	830.41786	-1936.11374	406.42391	829.2942	-1946.15555	389.5792	775.18738	-1895.25375	-5.19341	1358.79669	-2035.48767	-55.41332	1153.83072	-2079.90891	-81.08116	1033.76297	-2023.31009	-83.08034	939.92844	-2003.4523	-14.2873	829.38835	-1911.0347	-87.90562	816.24191	-1909.11743	-71.42116	784.01169	-1873.15475	286.64783	956.05103	-1933.50937	20.11047	954.82216	-1934.61395	228.08468	1022.09694	-2102.4176	69.56388	1031.44821	-2106.71906	288.96275	659.54758	-2080.94482	288.36039	508.36849	-2031.95114	239.81819	310.06699	-2015.62088	269.08581	160.46013	-2087.5412	210.94526	112.11937	-2140.3038	240.98639	78.54174	-1956.28677	24.47845	671.51855	-2084.26193	42.8029	507.56645	-1979.90555	56.38078	334.38656	-2006.22314	54.00796	143.13178	-2076.25748	111.85336	98.89176	-2142.63763	62.30548	77.11376	-1954.85535
4	0.11	238.88885	1601.9754	-1932.63535	67.942	1574.64081	-1908.19916	247.97356	1600.82413	-2058.32184	32.38404	1580.38544	-2003.62595	224.71001	1349.15619	-1984.12918	90.8023	1346.88232	-1984.56573	223.6338	1376.89499	-2114.22333	75.0491	1377.54425	-2104.11346	158.11775	1202.59781	-2148.68729	159.38344	1305.63995	-1927.3735	160.15383	1218.11852	-1862.46063	323.68061	1356.81305	-2046.12076	376.18984	1118.30055	-2059.3306	389.74491	1038.6261	-2024.58374	381.18767	964.7345	-2036.56097	334.37855	829.52026	-1936.45477	406.1425	828.72856	-1945.80032	388.77201	774.16672	-1895.50232	-4.97792	1359.00909	-2034.4545	-55.89305	1154.00391	-2078.34595	-80.82433	1033.96439	-2021.54144	-82.80355	940.17738	-2002.14539	-12.93892	828.99864	-1911.35391	-86.67199	815.99449	-1908.33878	-69.53242	783.29597	-1872.95654	286.56372	955.99701	-1933.72391	20.22525	954.7438	-1934.91425	228.10749	1022.26547	-2102.88651	69.55569	1031.63254	-2107.11761	288.94781	659.52194	-2081.40045	288.33242	508.36227	-2032.28027	239.72866	310.06847	-2015.80917	269.09756	160.45813	-2087.54837	210.97012	112.08906	-2140.3511	240.98049	78.54867	-1956.29761	24.49514	671.56998	-2084.83566	43.0212	507.66823	-1980.75363	56.36025	334.51214	-2006.50314	54.01625	143.20686	-2076.34247	111.88128	98.83507	-2142.62894	62.30317	77.1145	-1954.85336
5	0.143	239.26609	1602.6088	-1933.647	68.34332	1575.49149	-1908.77594	248.1868	1601.19537	-2059.36081	32.62446	1580.85602	-2004.20807	225.31923	1348.97095	-1983.90167	91.11364	1346.67328	-1983.90518	223.94201	1377.11258	-2113.74268	75.25773	1377.74445	-2103.45108	158.25293	1202.85843	-2148.57834	159.50933	1305.0824	-1926.96518	160.34595	1217.53281	-1862.2435	323.94299	1356.65726	-2045.50369	376.44665	1117.80869	-2057.74231	389.57905	1038.24707	-2022.79709	381.42578	964.67247	-2035.54306	334.02664	828.15102	-1937.73773	405.81867	827.69501	-1945.99396	387.97153	772.47543	-1896.59103	-4.77694	1359.04343	-2033.69995	-55.97067	1153.78845	-2077.20657	-79.95148	1033.70789	-2020.16937	-81.92503	940.01862	-2001.42792	-11.76253	827.9512	-1912.32391	-85.47729	815.14999	-1908.70041	-67.89884	781.99699	-1873.69202	286.53294	955.95116	-1934.24362	20.19956	954.73358	-1935.42068	228.17072	1022.3188	-2103.3255	69.60431	1031.75819	-2107.57751	289.10227	659.44069	-2081.70837	288.36081	508.33057	-2032.45117	239.74667	310.04919	-2015.97	269.13639	160.39745	-2087.65457	211.03151	111.99073	-2140.41	240.9733	78.52608	-1956.34048	24.496	671.52412	-2085.22171	43.03576	507.6955	-1981.06079	56.41186	334.51607	-2006.76834	54.05474	143.1461	-2076.38733	111.84237	98.83556	-2142.67685	62.35739	77.11467	-1954.87595
6	0.177	239.66339	1602.87842	-1934.42947	68.65448	1575.74356	-1909.39499	248.30601	1601.57776	-2060.13504	32.94815	1581.21094	-2004.62448	225.7605	1348.80142	-1983.9122	91.23969	1346.51001	-1983.65524	224.23239	1377.22977	-2113.59756	75.49347	1377.74734	-2103.11172	158.48173	1202.91473	-2148.48526	159.63573	1304.76135	-1926.82388	160.45805	1217.22061	-1862.04697	324.19327	1356.49216	-2044.98581	376.70799	1117.37785	-2056.22864	389.23447	1037.87811	-2021.05499	381.42479	964.63364	-2034.72702	333.60847	826.64948	-1939.50073	405.43865	826.63979	-1946.90628	387.18887	770.57037	-1898.48923	-4.57932	1358.91129	-2033.3844	-55.51645	1153.24615	-2076.60828	-78.4977	1033.21564	-2019.4902	-80.57997	939.6347	-2001.50803	-10.65024	826.52168	-1913.6998	-84.29979	813.93295	-1909.83292	-66.84471	780.43549	-1875.22583	286.52325	955.77827	-1934.7641	20.19766	954.72313	-1935.82764	228.388	1022.33986	-2103.68195	69.75304	1031.86577	-2107.95273	289.24213	659.31061	-2081.90506	288.36683	508.24139	-2032.5386	239.6714	309.98247	-2016.03394	269.10192	160.29785	-2087.73712	211.0544	111.90563	-2140.48309	240.93422	78.53273	-1956.36551	24.46297	671.57913	-2085.7077	43.01705	507.673	-1981.15387	57.08805	334.63181	-2007.70416	53.99108	143.15454	-2076.45966	111.79652	98.78399	-2142.72247	62.34705	77.1481	-1954.88647
7	0.21	239.90459	1603.08289	-1935.01495	69.02246	1576.06308	-1910.05661	248.58831	1601.78665	-2060.81131	33.26326	1581.492	-2005.29129	226.20853	1348.71002	-1983.95935	91.29	1346.36383	-1983.60123	224.45414	1377.3056	-2113.41827	75.72702	1377.6944	-2102.95212	158.81851	1202.90939	-2148.4436	159.71033	1304.66843	-1926.72745	160.39801	1217.07314	-1861.93619	324.36592	1356.46027	-2044.7757	376.86749	1117.08725	-2054.97711	388.75328	1037.58949	-2019.63577	381.54205	964.9131	-2034.34723	333.12553	825.32471	-1941.53885	405.00244	825.73257	-1948.03482	386.23932	768.65936	-1900.67902	-4.48149	1358.74008	-2033.49396	-54.738	1152.62253	-2076.55182	-76.67962	1032.50305	-2019.36981	-78.83744	939.12445	-2002.27203	-9.47003	824.9192	-1915.1947	-83.12741	812.7005	-1911.80252	-65.82324	778.69072	-1877.43378	286.45391	955.5471	-1935.43793	20.24858	954.75685	-1936.31516	228.57752	1022.33643	-2103.95477	69.93019	1031.9368	-2108.40134	289.29638	659.19754	-2082.05963	288.42295	508.1773	-2032.61459	239.65826	309.89355	-2016.10443	269.08154	160.17391	-2087.85431	211.09447	111.81951	-2140.55939	240.89909	78.58466	-1956.39847	24.51955	671.54327	-2086.04324	43.03519	507.76558	-1981.41357	57.06611	334.6563	-2007.92618	53.99002	143.14557	-2076.4653	111.82532	98.7301	-2142.67487	62.37601	77.14866	-1954.92065
8	0.243	240.0807	1603.87161	-1935.93735	69.29529	1577.1524	-1911.0553	249.08501	1601.42731	-2061.64185	33.58368	1582.02362	-2006.53687	226.6671	1348.76175	-1983.91922	91.3252	1346.27731	-1983.33435	224.66656	1377.38647	-2112.95242	75.94909	1377.72614	-2102.66373	159.20355	1203.10089	-2148.37372	159.52363	1304.45984	-1926.35895	160.29423	1216.8969	-1861.85974	324.46976	1356.30722	-2044.05884	376.96117	1116.97357	-2054.27719	388.30986	1037.35748	-2018.83255	381.44676	964.97078	-2034.31	332.66537	824.30023	-1943.66135	404.42276	824.95453	-1949.25247	385.13535	767.0842	-1902.95532	-4.50384	1358.49686	-2033.5704	-53.76051	1152.05116	-2077.04895	-74.93462	1031.86089	-2020.09354	-77.00356	938.56483	-2003.67065	-7.99829	823.79066	-1916.9249	-81.70305	811.49544	-1914.17786	-64.69599	777.10297	-1880.00885	286.54623	955.7029	-1935.01831	20.33985	954.74098	-1936.78802	228.77892	1022.33673	-2104.29291	70.10502	1031.98097	-2108.7915	289.44807	659.18793	-2082.18597	288.5014	508.17116	-2032.68127	239.70434	309.90053	-2016.11588	269.11982	160.17216	-2087.88971	211.12455	111.81284	-2140.55511	240.91688	78.56053	-1956.39435	24.63348	671.58028	-2086.37955	43.1133	507.85732	-1981.81519	57.15382	334.63703	-2007.94144	54.01689	143.1421	-2076.51733	111.83481	98.65429	-2142.68417	62.37784	77.15476	-1954.9263
